<?xml version="1.0" encoding="utf-8"?>
<!-- Generator: Adobe Illustrator 21.0.0, SVG Export Plug-In . SVG Version: 6.00 Build 0)  -->
<svg version="1.1" id="Layer_1" xmlns="http://www.w3.org/2000/svg" xmlns:xlink="http://www.w3.org/1999/xlink" x="0px" y="0px"
	 viewBox="0 0 1109 228" style="enable-background:new 0 0 1109 228;" xml:space="preserve">
<style type="text/css">
	.st0{fill:#4E2A84;}
</style>
<g>
	<g>
		<polygon class="st0" points="36.4,84.7 36.4,87.4 43,94.7 43,145.1 34.1,147.6 34.1,150.6 58.1,150.6 58.1,147.6 50.5,145.6 
			48.6,143.2 48.6,101.1 90.5,151.1 94.2,151.1 94.2,91.1 103.1,88.4 103.1,85.3 78.8,85.3 78.8,88.8 86.5,90.7 88.4,93.1 88.4,133 
			88.4,132.9 87.9,132.9 47.2,84.7 		"/>
		<path class="st0" d="M126.2,151.7c-11.8,0-23.2-7.6-23.2-23.8c0-16.1,12-24.2,23.2-24.2c11.6,0,23.4,7.3,23.4,23.4
			C149.6,142.6,137.2,151.7,126.2,151.7z M140.4,128.5c0-11-6-20.4-15.5-20.4c-8.5,0-12.7,7.4-12.7,18.4c0,11,5.3,20.7,15.3,20.7
			C136,147.2,140.4,139.5,140.4,128.5z"/>
		<path class="st0" d="M268.7,123.7c0-11-6.2-13.2-13.4-13.2c-6.1,0-10.1,4.5-10.1,4.5l0,7.3v21.1l1.9,2.4l6.4,2.2l0,2.5h-23V148
			l6.5-2.5l0-47.6c0-8.6-2.2-11-6.9-11v-2.3l14.6-4.9h1c0,0-0.5,10.2-0.5,17.8v13.7c0,0,9.5-7.6,16-7.6c8.1,0,15.6,3.4,15.6,15.3
			l0,24.5l1.9,2.4l6.4,2.2l0,2.5h-23V148l6.3-2.4L268.7,123.7z"/>
		<path class="st0" d="M361.9,125.2c0,13.7,7.8,19.4,16.7,19.4c5.5,0,12.1-2.3,12.1-2.3l1,1.9c-2.4,2.4-9,7.4-17.3,7.4
			c-11.2,0-21.3-8.4-21.3-23.8c0-14,9.7-24.2,21.7-24.2c9.4,0,16.7,5.6,16.7,16.3c0,2.8-0.5,5.2-0.5,5.2H361.9z M376.4,121.5
			c4.7-0.2,6.4-1.1,6.4-5.9c0-4.1-3-7.3-9.3-7.3c-6.6,0-11.6,5.8-11.6,13.7L376.4,121.5z"/>
		<path class="st0" d="M402.3,149.9c-0.7-0.3-2.5-1.3-2.6-3.4l-0.6-9.4h4.3c1.2,6.4,5.5,10.6,11.1,10.6c5.7,0,8-3,8-6.9
			c0-3.8-3.1-5.7-6.8-7.7l-5-2.6c-7.2-3.7-10.8-6.6-10.8-13.7c0-8.9,6.4-13.1,16.4-13.1c7,0,12.4,2.7,12.4,2.7l-1.3,11.5h-4
			c0-7.2-3-9.9-9-9.9c-4,0-7.8,1.6-7.8,5.5c0,3.2,1.3,4.5,9.1,8.6l4.4,2.3c8.1,4.1,10.4,7.6,10.4,14.3c0,8.1-8.1,12.9-16,12.9
			C409.6,151.7,405.2,151.1,402.3,149.9z"/>
		<path class="st0" d="M479.9,125.2c0,13.7,7.8,19.4,16.7,19.4c5.5,0,12.1-2.3,12.1-2.3l1,1.9c-2.4,2.4-9,7.4-17.3,7.4
			c-11.2,0-21.3-8.4-21.3-23.8c0-14,9.7-24.2,21.7-24.2c9.4,0,16.7,5.6,16.7,16.3c0,2.8-0.5,5.2-0.5,5.2H479.9z M494.4,121.5
			c4.7-0.2,6.4-1.1,6.4-5.9c0-4.1-3-7.3-9.3-7.3c-6.6,0-11.6,5.8-11.6,13.7L494.4,121.5z"/>
		<path class="st0" d="M601.3,145.8l-1.9-2.4l0.1-25c0-11.5-7.5-14.8-15.2-14.8c-6.5,0-15.7,7.6-15.7,7.6c0-4.1,0.2-7.9,0.2-7.9
			h-0.8l-14.4,5.2v2.4c5.5,0,7,4.9,7,13.8v20.7l-6.5,2.5v2.6h22.7l0.2-2.5l-6.4-2.2l-1.9-2.4l0-28.3c0,0,3.5-4.6,9.7-4.6
			c6.4,0,13,2.3,13,13.2l-0.3,21.9l-6.3,2.4v2.6h22.7l0.2-2.5L601.3,145.8z"/>
		<path class="st0" d="M327.5,151.1l-10.6-29.3l-12.1,29.3h-4.1l-11.9-36.2c-1.7-4.5-2.6-7.2-5.8-7.2v-2.8h19.5v2.8l-5.9,1.9l8.9,30
			l7.8-18.7l1.8-4.8l-2.7-7.6l-3.4-0.8v-2.8h18.8v3l-5.9,1.8l10,30l10.4-29.8l-6.7-2.4v-2.6h17.7v2.8c-4,0.5-6,1.6-9.2,9.7
			l-11.9,33.7H327.5z"/>
		<path class="st0" d="M225,143.8c0,0-2.8,1.8-6.9,1.8c-4.4,0-8.5-2.5-8.4-8.6l0.4-25.8h14.6v0h0.1l0.2-1.6h0l1-8.1l-1.9-0.3
			l-1.4,3.1l-0.8,0.7l-11.6,0.5v0l-0.1,0V93.5l-5.7,1l-2.5,11.1l-8.1,0.8v3.8c4.4,0,8.1,0.4,8.1,4.6c0,4.2-0.4,17.6-0.4,22.9
			c0,10.1,3.8,13.8,10.3,13.8c5.5,0,10.1-2.3,14.2-5.6L225,143.8z"/>
		<path class="st0" d="M466.6,143.8c0,0-2.8,1.8-6.9,1.8c-4.4,0-8.5-2.5-8.4-8.6l0.4-25.8h14.6l0,0h0l0.2-1.6h0l1-8.1l-1.9-0.3
			l-1.4,3.1l-0.8,0.7l-11.6,0.5v0l0,0V93.5l-5.7,1l-2.5,11.1l-8.1,0.8v3.8c4.4,0,8.1,0.4,8.1,4.6c0,4.2-0.4,17.6-0.4,22.9
			c0,10.1,3.8,13.8,10.3,13.8c5.5,0,10.1-2.3,14.2-5.6L466.6,143.8z"/>
		<path class="st0" d="M188.3,104.3L188.3,104.3L188.3,104.3c-0.1,0-1.7-0.6-4.9-0.6c-6.9,0-14.1,10.9-14.1,10.9
			c0-6,0.2-11.1,0.2-11.1h-0.8l-14.1,5.2v2.4c5.3,0,7,4.8,7,13v21.5l-6.5,2.5v2.6h22.7l0-2.5l-6.4-2.2l-1.9-2.4v-21.1
			c0-6.5,5.1-10.2,10.7-10.2c1.1,0,2.3,0.3,3.3,0.6l1.5,2.3l1.9,0.2L188.3,104.3L188.3,104.3L188.3,104.3z"/>
		<path class="st0" d="M549.2,104.3L549.2,104.3L549.2,104.3c-0.1,0-1.7-0.6-4.9-0.6c-6.9,0-14.1,10.9-14.1,10.9
			c0-6,0.2-11.1,0.2-11.1h-0.8l-14.1,5.2v2.4c5.3,0,7,4.8,7,13v21.5l-6.5,2.5v2.6h22.7l0-2.5l-6.4-2.2l-1.9-2.4v-21.1
			c0-6.5,5.1-10.2,10.7-10.2c1.1,0,2.3,0.3,3.3,0.6l1.5,2.3l1.9,0.2L549.2,104.3L549.2,104.3L549.2,104.3z"/>
	</g>
	<g>
		<path class="st0" d="M840.6,125c0,13.7,7.8,19.4,16.7,19.4c5.5,0,12.1-2.3,12.1-2.3l1,1.9c-2.4,2.4-9,7.4-17.3,7.4
			c-11.2,0-21.3-8.4-21.3-23.8c0-14,9.7-24.2,21.7-24.2c9.4,0,16.7,5.6,16.7,16.3c0,2.8-0.5,5.2-0.5,5.2H840.6z M855.1,121.3
			c4.7-0.2,6.4-1.1,6.4-5.9c0-4.1-3-7.3-9.3-7.3c-6.6,0-11.6,5.8-11.6,13.7L855.1,121.3z"/>
		<path class="st0" d="M773.7,143.3l1.9,2.4l6.4,2.2l-0.2,2.5h-22.4v-2.6l6.5-2.5l0-22.4c0-9.1-1.8-12.1-7.1-12.1v-2.4l14.4-5.2h0.8
			c0,0-0.3,6.8-0.3,13.9L773.7,143.3z"/>
		<path class="st0" d="M804.5,104.7v2.6l-6.6,2.2l11,29.9l11.4-29.7l-6.9-2.4v-2.6h17.5v2.8c-2.6,0-5.7,1.3-9.2,9.7l-12.5,33.8h-4.7
			l-13.8-36.2c-2.2-5.2-4.6-7.2-7.8-7.2v-2.8H804.5z"/>
		<path class="st0" d="M920.2,149.7c-0.7-0.3-2.5-1.3-2.6-3.4l-0.6-9.4h4.3c1.2,6.4,5.5,10.6,11.2,10.6c5.7,0,8-3,8-6.9
			c0-3.8-3.1-5.7-6.8-7.7l-5-2.6c-7.2-3.7-10.8-6.6-10.8-13.7c0-8.9,6.4-13.1,16.4-13.1c7,0,12.4,2.7,12.4,2.7l-1.3,11.5h-4
			c0-7.2-3-9.9-9-9.9c-4,0-7.8,1.6-7.8,5.5c0,3.2,1.3,4.5,9.1,8.6l4.4,2.3c8.1,4.1,10.4,7.6,10.4,14.3c0,8.1-8.1,12.9-16,12.9
			C927.5,151.5,923.1,150.9,920.2,149.7z"/>
		<path class="st0" d="M1022.8,114.6c-2.3-5.2-4.6-7.2-7.8-7.2v-2.8h21.3v2.6l-6.6,2.2l11.4,29.9l10.4-29.7l-6.9-2.4v-2.6h18.4v2.8
			c-2.6,0-6.2,1.3-9.4,9.7l-11.5,31.4c-6.4,16.8-14.2,25.7-26,25l-1.2-9.7c0,0,2.7,0.7,7.6,0.3c5.7-0.4,11.3-6.2,13.6-13.7
			L1022.8,114.6z"/>
		<path class="st0" d="M748,145.7l-1.9-2.4l0.1-25c0-11.5-7.5-14.8-15.2-14.8c-6.5,0-15.7,7.6-15.7,7.6c0-4.1,0.2-7.9,0.2-7.9h-0.8
			l-14.4,5.2v2.4c5.5,0,7,4.9,7,13.8l0,20.7l-6.5,2.5v2.6h22.7l0.2-2.5l-6.4-2.2l-1.9-2.4l0-28.3c0,0,3.5-4.6,9.7-4.6
			c6.4,0,13,2.3,13,13.2l-0.3,21.9l-6.3,2.4v2.6h22.7l0.2-2.5L748,145.7z"/>
		<path class="st0" d="M1011.4,143.6c0,0-2.8,1.8-6.9,1.8c-4.4,0-8.5-2.5-8.4-8.6l0.4-25.8h12.5l0,0h0l0.2-1.6h0l1-8.1l-1.9-0.3
			l-1.4,3.1l-0.8,0.7l-9.5,0.5v0l0,0V93.4l-5.7,1l-2.5,11.1l-8.1,0.8v3.8c4.4,0,8.1,0.4,8.1,4.6c0,4.2-0.4,17.6-0.4,22.9
			c0,10.1,3.8,13.8,10.3,13.8c5.5,0,10.1-2.3,14.2-5.6L1011.4,143.6z"/>
		<path class="st0" d="M911.5,104.1L911.5,104.1L911.5,104.1c-0.1,0-1.7-0.6-4.9-0.6c-6.9,0-14.1,10.9-14.1,10.9
			c0-6,0.2-11.1,0.2-11.1h-0.8l-14.1,5.2v2.4c5.3,0,7,4.8,7,13v21.5l-6.5,2.5v2.6h22.7l0-2.5l-6.4-2.2l-1.9-2.4v-21.1
			c0-6.5,5.1-10.2,10.7-10.2c1.1,0,2.3,0.3,3.3,0.6l1.5,2.3l1.9,0.2L911.5,104.1L911.5,104.1L911.5,104.1z"/>
		<path class="st0" d="M769.6,95.6c-1.1,0-6.2-5.6-6.2-6.6c0-1,5-6.7,6.2-6.7c1.3,0,6.2,5.7,6.2,6.7C775.8,90,770.7,95.6,769.6,95.6
			z"/>
		<path class="st0" d="M971.1,143.3l1.9,2.4l6.4,2.2l-0.2,2.5h-22.4v-2.6l6.5-2.5l0-22.4c0-9.1-1.8-12.1-7.1-12.1v-2.4l14.4-5.2h0.8
			c0,0-0.3,6.8-0.3,13.9L971.1,143.3z"/>
		<path class="st0" d="M690.5,128.4c0,17.1-12.1,22.7-23.8,22.7c-17.5,0-24.7-8.2-24.7-23.4V99c0-8.4-2.3-10.3-8.9-10.6v-3.3h26.9v3
			l-9.2,2.9v32.4c0,19.5,7.9,22.4,16.9,22.4c9.4,0,16.5-4.3,16.5-20.2v-12V91l-8.9-2.7v-3.1h23.7v3.5l-6.7,1.1l-1.9,2.4v12.7
			L690.5,128.4z"/>
		<path class="st0" d="M967,95.6c-1.1,0-6.2-5.6-6.2-6.6c0-1,5-6.7,6.2-6.7c1.3,0,6.2,5.7,6.2,6.7C973.2,90,968.1,95.6,967,95.6z"/>
	</g>
</g>
</svg>
